<svg width="635" height="196" viewBox="0 0 635 196" fill="none" xmlns="http://www.w3.org/2000/svg">
<rect width="635" height="196" fill="#E5E5E5"/>
<g id="signo">
<rect width="635" height="196" fill="white"/>
<g id="Vector-1" filter="url(#filter0_d)">
<path d="M71.2555 116.328C71.2555 124.835 69.3942 136.903 75.7191 143.659C78.6878 146.83 80.1743 148.1 84.612 147.814C88.2046 147.582 90.947 145.496 93.5736 143.179C101.552 136.139 109.09 128.245 116.166 120.311C136.379 97.6502 155.043 73.8556 173.61 49.8547C179.801 41.8505 185.155 33.6112 190.4 24.9958C192.495 21.5529 192.181 23.9825 191.361 26.8155C190.392 30.1642 188.687 33.4081 187.309 36.6012C184.571 42.9468 182.234 49.4504 179.412 55.7604C175.06 65.4921 170.989 75.655 165.884 85.0142C162.184 91.7978 167.153 85.6758 169.18 83.1601C180.985 68.5133 193.539 54.3562 206.537 40.7558C215.041 31.8583 223.635 22.491 235.173 17.7166C236.001 17.374 237.636 16.1661 237.371 17.957C237.031 20.25 235.197 22.6327 234.006 24.4464C230.483 29.8108 226.742 35.0324 223.19 40.3781C209.529 60.9361 195.724 81.4391 182.777 102.457C170.284 122.738 157.281 143.785 149.746 166.389" stroke="black" stroke-width="4" stroke-linecap="round" stroke-linejoin="round"/>
</g>
<g id="Vector-2" filter="url(#filter1_d)">
<path d="M173.85 157.737C175.947 156.212 180.767 154.553 183.395 156.226C185.348 157.469 184.403 160.781 183.121 162.063C177.468 167.715 170.142 163.355 170.142 155.883" stroke="black" stroke-width="4" stroke-linecap="round" stroke-linejoin="round"/>
</g>
<g id="Vector-3" filter="url(#filter2_d)">
<path d="M291.895 52.6702C275.437 58.479 260.739 69.8583 249.251 82.7824C237.305 96.2211 227.79 112.542 221.508 129.376C217.414 140.344 212.472 156.255 217.216 167.797C219.549 173.474 224.189 177.423 230.366 177.995C240.494 178.932 248.388 174.436 256.701 169.102C273.256 158.479 288.822 145.654 302.745 131.779C313.838 120.725 326.859 107.671 330.969 92.053C332.458 86.3948 332.068 80.5075 332.068 74.7136C332.068 70.6168 332.4 70.8737 333.922 74.4389C337.262 82.2631 340.758 89.7347 344.944 97.169C349.674 105.571 355.709 113.773 358.781 122.989C359.826 126.124 360.781 130.469 359.124 133.599C356.891 137.816 349.792 141.092 345.665 142.904C338.545 146.03 331.253 148.466 323.415 148.466" stroke="black" stroke-width="4" stroke-linecap="round" stroke-linejoin="round"/>
</g>
<g id="Vector-4" filter="url(#filter3_d)">
<path d="M396.962 115.71C390.596 113.226 380.33 109.487 375.022 115.779C370.456 121.19 367.496 127.709 365.854 134.595C364.946 138.401 364.234 145.862 367.433 148.947C369.841 151.269 374.828 148.84 376.91 147.436C385.336 141.753 393.019 132.153 398.095 123.47C400.017 120.183 401.724 116.564 403.074 112.998C403.123 112.867 404.177 109.119 404.344 110.285C405.467 118.144 402.869 126.43 402.25 134.217C401.859 139.124 399.645 151.805 406.851 153.273C414.351 154.801 421.457 147.02 426.284 142.492C439.408 130.184 450.534 115.753 460.551 100.843C466.036 92.6798 470.801 83.881 474.388 74.7136C476.867 68.3808 478.275 61.718 480.638 55.3484C482.101 51.4037 484.723 45.9835 484.723 41.6828C484.723 40.2475 482.825 43.5265 482.732 43.6743C480.094 47.8706 477.385 52.0073 474.698 56.1724C463.216 73.9648 454.227 92.0312 449.152 112.689C447.115 120.98 445.845 129.48 445.787 138.028C445.769 140.693 445.643 143.378 447.641 145.376C450.301 148.036 455.768 146.534 458.594 144.964C468.14 139.661 476.645 132.454 486.578 127.831C494.92 123.947 502.467 123.617 511.299 123.127C512.615 123.053 513.863 121.181 514.733 120.311C516.456 118.588 518.216 117.704 520.261 116.603C521.49 115.941 525.262 114.474 523.866 114.474C519.676 114.474 516.514 115.454 513.05 118.011C506.056 123.173 499.783 130.914 496.123 138.784C495.19 140.789 492.415 146.228 494.749 148.329C497.11 150.454 504.265 146.599 506.08 145.651C517.388 139.744 527.532 131.976 537.772 124.431C541.946 121.355 546.877 115.864 552.433 115.71C556.837 115.588 555.18 123.45 555.18 126.354C555.18 137.299 555.101 147.184 558.888 157.599C559.484 159.238 560.714 164.348 563.214 162.681" stroke="black" stroke-width="4" stroke-linecap="round" stroke-linejoin="round"/>
</g>
</g>
<defs>
<filter id="filter0_d" x="65" y="15.0013" width="178.399" height="161.389" filterUnits="userSpaceOnUse" color-interpolation-filters="sRGB">
<feFlood flood-opacity="0" result="BackgroundImageFix"/>
<feColorMatrix in="SourceAlpha" type="matrix" values="0 0 0 0 0 0 0 0 0 0 0 0 0 0 0 0 0 0 127 0"/>
<feOffset dy="4"/>
<feGaussianBlur stdDeviation="2"/>
<feColorMatrix type="matrix" values="0 0 0 0 0 0 0 0 0 0 0 0 0 0 0 0 0 0 0.25 0"/>
<feBlend mode="normal" in2="BackgroundImageFix" result="effect1_dropShadow"/>
<feBlend mode="normal" in="SourceGraphic" in2="effect1_dropShadow" result="shape"/>
</filter>
<filter id="filter1_d" x="164.142" y="153.527" width="26.3681" height="21.1144" filterUnits="userSpaceOnUse" color-interpolation-filters="sRGB">
<feFlood flood-opacity="0" result="BackgroundImageFix"/>
<feColorMatrix in="SourceAlpha" type="matrix" values="0 0 0 0 0 0 0 0 0 0 0 0 0 0 0 0 0 0 127 0"/>
<feOffset dy="4"/>
<feGaussianBlur stdDeviation="2"/>
<feColorMatrix type="matrix" values="0 0 0 0 0 0 0 0 0 0 0 0 0 0 0 0 0 0 0.25 0"/>
<feBlend mode="normal" in2="BackgroundImageFix" result="effect1_dropShadow"/>
<feBlend mode="normal" in="SourceGraphic" in2="effect1_dropShadow" result="shape"/>
</filter>
<filter id="filter2_d" x="209.276" y="50.6696" width="156.745" height="137.449" filterUnits="userSpaceOnUse" color-interpolation-filters="sRGB">
<feFlood flood-opacity="0" result="BackgroundImageFix"/>
<feColorMatrix in="SourceAlpha" type="matrix" values="0 0 0 0 0 0 0 0 0 0 0 0 0 0 0 0 0 0 127 0"/>
<feOffset dy="4"/>
<feGaussianBlur stdDeviation="2"/>
<feColorMatrix type="matrix" values="0 0 0 0 0 0 0 0 0 0 0 0 0 0 0 0 0 0 0.25 0"/>
<feBlend mode="normal" in2="BackgroundImageFix" result="effect1_dropShadow"/>
<feBlend mode="normal" in="SourceGraphic" in2="effect1_dropShadow" result="shape"/>
</filter>
<filter id="filter3_d" x="359.086" y="39.3204" width="210.129" height="133.691" filterUnits="userSpaceOnUse" color-interpolation-filters="sRGB">
<feFlood flood-opacity="0" result="BackgroundImageFix"/>
<feColorMatrix in="SourceAlpha" type="matrix" values="0 0 0 0 0 0 0 0 0 0 0 0 0 0 0 0 0 0 127 0"/>
<feOffset dy="4"/>
<feGaussianBlur stdDeviation="2"/>
<feColorMatrix type="matrix" values="0 0 0 0 0 0 0 0 0 0 0 0 0 0 0 0 0 0 0.25 0"/>
<feBlend mode="normal" in2="BackgroundImageFix" result="effect1_dropShadow"/>
<feBlend mode="normal" in="SourceGraphic" in2="effect1_dropShadow" result="shape"/>
</filter>
</defs>
</svg>
